<svg xmlns="http://www.w3.org/2000/svg" viewBox="0 0 640 280" role="img" aria-label="TPG — The Pertinent Group">
  <defs>
    <linearGradient id="bar" x1="0%" y1="0%" x2="100%" y2="0%">
      <stop offset="0%" stop-color="#121826"/>
      <stop offset="100%" stop-color="#0a0e1a"/>
    </linearGradient>
  </defs>

  <!-- Soft monogram (readable weight, low opacity) -->
  <g
    fill="none"
    stroke="#0a0e1a"
    stroke-width="10"
    stroke-linejoin="round"
    stroke-linecap="round"
    opacity="0.12"
  >
    <path d="M78 40h108v22H136v140H112V62H78V40z"/>
    <path d="M198 40h68c40 0 64 22 64 56 0 26-14 46-38 54l48 68h-32l-46-66h-40v66h-24V40zm28 22v52h38c20 0 34-12 34-26s-14-26-34-26h-38z"/>
    <path d="M410 188c0 46-36 78-86 78s-86-32-86-78 36-78 86-78c24 0 46 8 62 22l-18 18c-12-10-26-16-44-16-32 0-54 22-54 54s22 54 54 54c28 0 48-16 52-40h-56v-22h88c0 8 0 14 2 24z"/>
  </g>

  <!-- TPG badge -->
  <rect x="252" y="36" width="136" height="56" rx="10" fill="#c4a35a"/>
  <text
    x="320"
    y="74"
    text-anchor="middle"
    font-family="Arial Black, Arial, Helvetica, sans-serif"
    font-size="32"
    font-weight="800"
    letter-spacing="0.14em"
    fill="#0a0e1a"
  >TPG</text>

  <!-- Wordmark -->
  <rect x="48" y="116" width="544" height="52" rx="6" fill="url(#bar)"/>
  <text
    x="320"
    y="150"
    text-anchor="middle"
    font-family="Arial Black, Arial, Helvetica, sans-serif"
    font-size="24"
    font-weight="800"
    letter-spacing="0.2em"
    fill="#f7f2e6"
  >THE PERTINENT GROUP</text>

  <text
    x="320"
    y="218"
    text-anchor="middle"
    font-family="Georgia, 'Times New Roman', serif"
    font-size="20"
    font-style="italic"
    fill="#1a2433"
  >Where Insight fuels Influence</text>
</svg>
